<?xml version="1.0" encoding="UTF-8" standalone="no"?>
<!DOCTYPE svg PUBLIC "-//W3C//DTD SVG 1.1//EN" "http://www.w3.org/Graphics/SVG/1.1/DTD/svg11.dtd">
<svg width="100%" height="100%" viewBox="0 0 1901 1551" version="1.1" xmlns="http://www.w3.org/2000/svg" xmlns:xlink="http://www.w3.org/1999/xlink" xml:space="preserve" xmlns:serif="http://www.serif.com/" style="fill-rule:evenodd;clip-rule:evenodd;stroke-linejoin:round;stroke-miterlimit:2;">
    <g transform="matrix(1,0,0,1,-282.942,-203.038)">
        <g id="Logo" transform="matrix(8.83204,0,0,8.83204,-3458.5,-12436.5)">
            <g transform="matrix(0.944306,0,0,1.16783,13.1744,-274.802)">
                <path d="M662.581,1528.08L445.936,1528.08L445.936,1610.84C445.936,1610.99 446.086,1611.11 446.271,1611.11C455.521,1611.11 653.277,1611.11 662.265,1611.11C662.349,1611.11 662.43,1611.08 662.489,1611.03C662.548,1610.98 662.581,1610.92 662.581,1610.85L662.581,1528.08Z" style="fill:white;"/>
            </g>
            <g transform="matrix(0.814134,0,-2.25968e-17,1,75.0856,21.1922)">
                <rect x="441.192" y="1468.05" width="251.284" height="26.308" style="fill:white;"/>
                <clipPath id="_clip1">
                    <rect x="441.192" y="1468.05" width="251.284" height="26.308"/>
                </clipPath>
                <g clip-path="url(#_clip1)">
                    <g transform="matrix(0.911808,0.410616,-0.410616,0.911808,817.384,-89.9097)">
                        <rect x="318.629" y="1539.69" width="18.579" height="71.412" style="fill:rgb(52,73,94);"/>
                    </g>
                    <g transform="matrix(0.911808,0.410616,-0.410616,0.911808,867.384,-89.9097)">
                        <rect x="318.629" y="1539.69" width="18.579" height="71.412" style="fill:rgb(52,73,94);"/>
                    </g>
                    <g transform="matrix(0.911808,0.410616,-0.410616,0.911808,917.384,-89.9097)">
                        <rect x="318.629" y="1539.69" width="18.579" height="71.412" style="fill:rgb(52,73,94);"/>
                    </g>
                    <g transform="matrix(0.911808,0.410616,-0.410616,0.911808,967.384,-89.9097)">
                        <rect x="318.629" y="1539.69" width="18.579" height="71.412" style="fill:rgb(52,73,94);"/>
                    </g>
                    <g transform="matrix(0.911808,0.410616,-0.410616,0.911808,1017.38,-89.9097)">
                        <rect x="318.629" y="1539.69" width="18.579" height="71.412" style="fill:rgb(52,73,94);"/>
                    </g>
                </g>
            </g>
            <g transform="matrix(0.816263,-0.12794,0.154848,0.987938,-157.787,69.3548)">
                <path d="M692.476,1468.3C692.476,1468.23 692.445,1468.17 692.389,1468.12C692.333,1468.07 692.257,1468.05 692.178,1468.05C682.716,1468.05 451.218,1468.05 441.506,1468.05C441.332,1468.05 441.192,1468.16 441.192,1468.31C441.192,1471.04 441.192,1494.36 441.192,1494.36L692.476,1494.36L692.476,1468.3Z" style="fill:white;"/>
                <clipPath id="_clip2">
                    <path d="M692.476,1468.3C692.476,1468.23 692.445,1468.17 692.389,1468.12C692.333,1468.07 692.257,1468.05 692.178,1468.05C682.716,1468.05 451.218,1468.05 441.506,1468.05C441.332,1468.05 441.192,1468.16 441.192,1468.31C441.192,1471.04 441.192,1494.36 441.192,1494.36L692.476,1494.36L692.476,1468.3Z"/>
                </clipPath>
                <g clip-path="url(#_clip2)">
                    <g transform="matrix(0.911808,0.410616,-0.410616,0.911808,817.384,-89.9097)">
                        <rect x="318.629" y="1539.69" width="18.579" height="71.412" style="fill:rgb(52,73,94);"/>
                    </g>
                    <g transform="matrix(0.911808,0.410616,-0.410616,0.911808,867.384,-89.9097)">
                        <rect x="318.629" y="1539.69" width="18.579" height="71.412" style="fill:rgb(52,73,94);"/>
                    </g>
                    <g transform="matrix(0.911808,0.410616,-0.410616,0.911808,917.384,-89.9097)">
                        <rect x="318.629" y="1539.69" width="18.579" height="71.412" style="fill:rgb(52,73,94);"/>
                    </g>
                    <g transform="matrix(0.911808,0.410616,-0.410616,0.911808,967.384,-89.9097)">
                        <rect x="318.629" y="1539.69" width="18.579" height="71.412" style="fill:rgb(52,73,94);"/>
                    </g>
                    <g transform="matrix(0.911808,0.410616,-0.410616,0.911808,1017.38,-89.9097)">
                        <rect x="318.629" y="1539.69" width="18.579" height="71.412" style="fill:rgb(52,73,94);"/>
                    </g>
                </g>
            </g>
            <g transform="matrix(1,0,0,1,-6.91683,21.1922)">
                <circle cx="441.192" cy="1468.05" r="10.653" style="fill:rgb(52,73,94);"/>
            </g>
        </g>
    </g>
</svg>
